<svg xmlns="http://www.w3.org/2000/svg" xmlns:xlink="http://www.w3.org/1999/xlink" width="150" zoomAndPan="magnify" viewBox="0 0 112.5 112.499997" height="150" preserveAspectRatio="xMidYMid meet" version="1.0"><path fill="#003866" d="M 59.675781 94.128906 C 59.117188 94.128906 58.5625 94.101562 58.011719 94.046875 C 57.457031 93.988281 56.910156 93.90625 56.363281 93.800781 C 55.816406 93.691406 55.28125 93.554688 54.746094 93.394531 C 54.214844 93.230469 53.695312 93.042969 53.179688 92.832031 C 52.667969 92.617188 52.164062 92.378906 51.675781 92.117188 C 51.183594 91.855469 50.710938 91.570312 50.246094 91.261719 C 49.785156 90.953125 49.339844 90.625 48.910156 90.269531 C 48.480469 89.917969 48.070312 89.546875 47.679688 89.152344 C 47.285156 88.761719 46.914062 88.351562 46.5625 87.921875 C 46.207031 87.492188 45.878906 87.046875 45.570312 86.585938 C 45.261719 86.125 44.976562 85.648438 44.714844 85.160156 C 44.453125 84.667969 44.21875 84.167969 44.003906 83.65625 C 43.792969 83.144531 43.605469 82.621094 43.445312 82.089844 C 43.285156 81.558594 43.148438 81.023438 43.042969 80.480469 C 42.933594 79.933594 42.851562 79.386719 42.800781 78.835938 C 42.746094 78.28125 42.71875 77.730469 42.71875 77.175781 C 42.71875 76.621094 42.746094 76.066406 42.800781 75.515625 C 42.859375 74.964844 42.941406 74.414062 43.046875 73.871094 C 43.15625 73.328125 43.292969 72.792969 43.453125 72.261719 C 43.617188 71.730469 43.804688 71.207031 44.015625 70.695312 C 44.230469 70.183594 44.46875 69.683594 44.730469 69.195312 C 44.992188 68.707031 45.277344 68.230469 45.589844 67.769531 C 45.898438 67.308594 46.230469 66.863281 46.582031 66.4375 C 46.933594 66.007812 47.308594 65.597656 47.703125 65.207031 C 48.09375 64.816406 48.507812 64.441406 48.9375 64.089844 C 49.367188 63.738281 49.8125 63.410156 50.273438 63.101562 C 50.738281 62.792969 51.214844 62.511719 51.703125 62.25 C 52.195312 61.988281 52.699219 61.75 53.210938 61.539062 C 53.726562 61.328125 54.246094 61.140625 54.78125 60.980469 C 55.3125 60.820312 55.851562 60.6875 56.394531 60.578125 C 56.941406 60.46875 57.492188 60.390625 58.042969 60.335938 C 58.597656 60.28125 59.152344 60.253906 59.707031 60.253906 C 60.265625 60.253906 60.816406 60.28125 61.371094 60.335938 C 61.925781 60.390625 62.472656 60.472656 63.019531 60.582031 C 63.5625 60.691406 64.101562 60.824219 64.636719 60.984375 C 65.167969 61.148438 65.691406 61.332031 66.203125 61.546875 C 66.714844 61.757812 67.21875 61.996094 67.707031 62.257812 C 68.199219 62.519531 68.675781 62.804688 69.136719 63.113281 C 69.597656 63.421875 70.046875 63.75 70.476562 64.101562 C 70.90625 64.453125 71.316406 64.824219 71.710938 65.21875 C 72.101562 65.609375 72.476562 66.019531 72.828125 66.449219 C 73.179688 66.878906 73.511719 67.324219 73.820312 67.785156 C 74.128906 68.246094 74.414062 68.722656 74.675781 69.210938 C 74.9375 69.699219 75.175781 70.199219 75.386719 70.710938 C 75.601562 71.222656 75.789062 71.746094 75.949219 72.277344 C 76.109375 72.808594 76.246094 73.34375 76.351562 73.886719 C 76.460938 74.433594 76.542969 74.980469 76.597656 75.53125 C 76.652344 76.085938 76.679688 76.636719 76.679688 77.191406 C 76.679688 77.746094 76.652344 78.300781 76.597656 78.855469 C 76.542969 79.40625 76.460938 79.953125 76.355469 80.5 C 76.246094 81.042969 76.109375 81.582031 75.949219 82.113281 C 75.785156 82.644531 75.597656 83.167969 75.386719 83.679688 C 75.171875 84.191406 74.933594 84.695312 74.671875 85.183594 C 74.410156 85.671875 74.125 86.148438 73.816406 86.609375 C 73.503906 87.074219 73.171875 87.519531 72.820312 87.945312 C 72.46875 88.375 72.09375 88.785156 71.699219 89.179688 C 71.304688 89.570312 70.894531 89.945312 70.460938 90.296875 C 70.03125 90.648438 69.585938 90.976562 69.121094 91.285156 C 68.660156 91.59375 68.179688 91.878906 67.691406 92.140625 C 67.199219 92.398438 66.695312 92.636719 66.179688 92.847656 C 65.667969 93.058594 65.144531 93.246094 64.609375 93.40625 C 64.078125 93.566406 63.539062 93.703125 62.992188 93.808594 C 62.445312 93.917969 61.894531 93.996094 61.339844 94.050781 C 60.785156 94.105469 60.230469 94.128906 59.675781 94.128906 M 59.675781 43.316406 C 58.5625 43.316406 57.453125 43.371094 56.34375 43.480469 C 55.238281 43.589844 54.140625 43.75 53.050781 43.96875 C 51.957031 44.183594 50.878906 44.453125 49.816406 44.777344 C 48.75 45.097656 47.707031 45.472656 46.679688 45.894531 C 45.652344 46.320312 44.648438 46.792969 43.664062 47.316406 C 42.683594 47.839844 41.730469 48.410156 40.808594 49.027344 C 39.882812 49.640625 38.988281 50.300781 38.128906 51.007812 C 37.269531 51.710938 36.449219 52.453125 35.660156 53.238281 C 34.875 54.023438 34.128906 54.84375 33.421875 55.703125 C 32.71875 56.558594 32.054688 57.449219 31.4375 58.371094 C 30.820312 59.292969 30.25 60.246094 29.722656 61.222656 C 29.199219 62.203125 28.726562 63.203125 28.300781 64.226562 C 27.875 65.253906 27.5 66.296875 27.175781 67.359375 C 26.855469 68.421875 26.582031 69.496094 26.367188 70.582031 C 26.148438 71.671875 25.988281 72.765625 25.878906 73.871094 C 25.769531 74.976562 25.714844 76.082031 25.714844 77.191406 C 25.714844 78.300781 25.769531 79.40625 25.878906 80.511719 C 25.988281 81.617188 26.148438 82.710938 26.367188 83.800781 C 26.582031 84.886719 26.855469 85.964844 27.175781 87.023438 C 27.5 88.085938 27.875 89.128906 28.300781 90.15625 C 28.726562 91.179688 29.199219 92.183594 29.722656 93.160156 C 30.25 94.136719 30.820312 95.089844 31.4375 96.011719 C 32.054688 96.933594 32.71875 97.824219 33.421875 98.679688 C 34.128906 99.539062 34.875 100.359375 35.660156 101.144531 C 36.449219 101.929688 37.269531 102.671875 38.128906 103.378906 C 38.988281 104.082031 39.882812 104.742188 40.808594 105.359375 C 41.730469 105.972656 42.683594 106.542969 43.664062 107.066406 C 44.648438 107.589844 45.652344 108.0625 46.679688 108.488281 C 47.707031 108.914062 48.75 109.285156 49.816406 109.609375 C 50.878906 109.929688 51.957031 110.199219 53.050781 110.414062 C 54.140625 110.632812 55.238281 110.792969 56.34375 110.902344 C 57.453125 111.011719 58.5625 111.066406 59.675781 111.066406 C 60.785156 111.066406 61.894531 111.011719 63.003906 110.902344 C 64.109375 110.792969 65.207031 110.632812 66.300781 110.414062 C 67.390625 110.199219 68.46875 109.929688 69.53125 109.609375 C 70.597656 109.285156 71.644531 108.914062 72.671875 108.488281 C 73.699219 108.0625 74.703125 107.589844 75.683594 107.066406 C 76.664062 106.542969 77.617188 105.972656 78.542969 105.359375 C 79.464844 104.742188 80.359375 104.082031 81.21875 103.378906 C 82.078125 102.671875 82.902344 101.929688 83.6875 101.144531 C 84.472656 100.359375 85.21875 99.539062 85.925781 98.679688 C 86.632812 97.824219 87.292969 96.933594 87.910156 96.011719 C 88.527344 95.089844 89.101562 94.136719 89.625 93.160156 C 90.148438 92.183594 90.625 91.179688 91.050781 90.15625 C 91.476562 89.128906 91.847656 88.085938 92.171875 87.023438 C 92.496094 85.964844 92.765625 84.886719 92.980469 83.800781 C 93.199219 82.710938 93.363281 81.617188 93.472656 80.511719 C 93.582031 79.40625 93.632812 78.300781 93.632812 77.191406 C 93.632812 76.082031 93.582031 74.976562 93.472656 73.871094 C 93.363281 72.765625 93.199219 71.671875 92.980469 70.582031 C 92.765625 69.496094 92.496094 68.421875 92.171875 67.359375 C 91.847656 66.296875 91.476562 65.253906 91.050781 64.226562 C 90.625 63.203125 90.148438 62.203125 89.625 61.222656 C 89.101562 60.246094 88.527344 59.292969 87.910156 58.371094 C 87.292969 57.449219 86.632812 56.558594 85.925781 55.703125 C 85.21875 54.84375 84.472656 54.023438 83.6875 53.238281 C 82.902344 52.453125 82.078125 51.710938 81.21875 51.007812 C 80.359375 50.300781 79.464844 49.640625 78.542969 49.027344 C 77.617188 48.410156 76.664062 47.839844 75.683594 47.316406 C 74.703125 46.792969 73.699219 46.320312 72.671875 45.894531 C 71.644531 45.472656 70.597656 45.097656 69.53125 44.777344 C 68.46875 44.453125 67.390625 44.183594 66.300781 43.96875 C 65.207031 43.75 64.109375 43.589844 63.003906 43.480469 C 61.894531 43.371094 60.785156 43.316406 59.675781 43.316406 " fill-opacity="1" fill-rule="nonzero"/><path fill="#003866" d="M 100.203125 27 C 99.949219 26.890625 80.523438 18.9375 65.460938 4.945312 L 65.367188 4.863281 C 65.25 4.757812 65.128906 4.664062 65.003906 4.5625 L 64.703125 4.320312 L 64.320312 4.0625 C 64.214844 3.988281 64.101562 3.917969 63.996094 3.855469 C 63.890625 3.792969 63.738281 3.714844 63.609375 3.644531 L 63.25 3.464844 L 62.898438 3.300781 C 62.769531 3.25 62.636719 3.195312 62.503906 3.152344 C 62.375 3.105469 62.253906 3.070312 62.128906 3.039062 C 62.003906 3.007812 61.855469 2.949219 61.714844 2.921875 L 61.339844 2.839844 C 61.195312 2.839844 61.058594 2.78125 60.914062 2.765625 L 60.527344 2.71875 L 58.855469 2.71875 L 58.464844 2.765625 C 58.320312 2.765625 58.183594 2.8125 58.039062 2.839844 L 57.664062 2.921875 C 57.527344 2.921875 57.386719 2.996094 57.246094 3.039062 L 56.875 3.164062 L 56.480469 3.3125 L 56.105469 3.476562 L 55.746094 3.65625 C 55.617188 3.726562 55.484375 3.792969 55.359375 3.871094 C 55.234375 3.945312 55.140625 4 55.03125 4.074219 L 54.652344 4.332031 L 54.351562 4.574219 C 54.226562 4.675781 54.105469 4.769531 53.988281 4.875 L 53.886719 4.957031 C 38.855469 18.953125 19.4375 26.90625 19.148438 27.011719 L 25.859375 42.566406 C 38.03125 37.328125 49.308594 30.585938 59.679688 22.351562 C 70.054688 30.585938 81.328125 37.324219 93.503906 42.566406 Z M 100.203125 27 " fill-opacity="1" fill-rule="nonzero"/><path fill="#003866" d="M 100.347656 39.96875 C 100.347656 39.648438 100.382812 39.332031 100.445312 39.019531 C 100.507812 38.707031 100.597656 38.402344 100.722656 38.105469 C 100.84375 37.8125 100.996094 37.53125 101.175781 37.265625 C 101.351562 37 101.554688 36.757812 101.78125 36.53125 C 102.007812 36.304688 102.253906 36.101562 102.519531 35.925781 C 102.785156 35.75 103.066406 35.597656 103.363281 35.476562 C 103.660156 35.355469 103.964844 35.261719 104.277344 35.199219 C 104.59375 35.136719 104.910156 35.109375 105.230469 35.109375 C 105.550781 35.109375 105.867188 35.140625 106.183594 35.203125 C 106.496094 35.265625 106.800781 35.355469 107.097656 35.480469 C 107.390625 35.601562 107.671875 35.75 107.9375 35.929688 C 108.207031 36.105469 108.453125 36.308594 108.679688 36.53125 C 108.90625 36.757812 109.105469 37.003906 109.285156 37.269531 C 109.460938 37.535156 109.613281 37.816406 109.734375 38.109375 C 109.859375 38.40625 109.949219 38.710938 110.011719 39.023438 C 110.074219 39.335938 110.105469 39.652344 110.109375 39.972656 C 110.109375 40.292969 110.078125 40.609375 110.015625 40.921875 C 109.953125 41.234375 109.859375 41.539062 109.738281 41.835938 C 109.613281 42.128906 109.464844 42.410156 109.289062 42.675781 C 109.109375 42.941406 108.90625 43.1875 108.679688 43.414062 C 108.457031 43.640625 108.207031 43.839844 107.941406 44.019531 C 107.675781 44.195312 107.394531 44.347656 107.101562 44.46875 C 106.804688 44.589844 106.5 44.683594 106.1875 44.746094 C 105.871094 44.808594 105.554688 44.839844 105.234375 44.839844 C 104.914062 44.839844 104.597656 44.808594 104.28125 44.746094 C 103.964844 44.683594 103.660156 44.59375 103.363281 44.46875 C 103.070312 44.347656 102.785156 44.199219 102.519531 44.019531 C 102.253906 43.84375 102.007812 43.640625 101.78125 43.414062 C 101.554688 43.1875 101.351562 42.941406 101.171875 42.675781 C 100.992188 42.410156 100.84375 42.128906 100.722656 41.832031 C 100.597656 41.539062 100.503906 41.234375 100.441406 40.917969 C 100.378906 40.605469 100.347656 40.289062 100.347656 39.96875 Z M 109.324219 39.96875 C 109.324219 39.699219 109.296875 39.433594 109.246094 39.167969 C 109.191406 38.90625 109.113281 38.652344 109.007812 38.402344 C 108.90625 38.152344 108.777344 37.917969 108.628906 37.695312 C 108.480469 37.472656 108.308594 37.265625 108.117188 37.074219 C 107.925781 36.886719 107.71875 36.71875 107.496094 36.566406 C 107.269531 36.417969 107.035156 36.292969 106.785156 36.191406 C 106.535156 36.089844 106.277344 36.011719 106.015625 35.960938 C 105.75 35.90625 105.484375 35.882812 105.214844 35.882812 C 104.945312 35.882812 104.675781 35.910156 104.414062 35.960938 C 104.148438 36.015625 103.890625 36.09375 103.644531 36.199219 C 103.394531 36.300781 103.160156 36.425781 102.933594 36.578125 C 102.710938 36.726562 102.503906 36.898438 102.3125 37.085938 C 102.125 37.277344 101.953125 37.484375 101.804688 37.710938 C 101.65625 37.933594 101.53125 38.167969 101.429688 38.417969 C 101.324219 38.667969 101.25 38.921875 101.195312 39.1875 C 101.144531 39.449219 101.117188 39.714844 101.121094 39.984375 C 101.121094 40.253906 101.148438 40.519531 101.199219 40.785156 C 101.253906 41.046875 101.332031 41.300781 101.4375 41.550781 C 101.539062 41.796875 101.667969 42.035156 101.816406 42.257812 C 101.96875 42.480469 102.136719 42.6875 102.328125 42.875 C 102.519531 43.066406 102.726562 43.234375 102.953125 43.382812 C 103.175781 43.53125 103.414062 43.65625 103.664062 43.761719 C 103.914062 43.863281 104.167969 43.9375 104.433594 43.992188 C 104.699219 44.042969 104.964844 44.066406 105.234375 44.066406 C 105.507812 44.078125 105.777344 44.058594 106.042969 44.011719 C 106.3125 43.964844 106.574219 43.894531 106.828125 43.792969 C 107.078125 43.695312 107.320312 43.570312 107.546875 43.421875 C 107.773438 43.269531 107.984375 43.101562 108.175781 42.910156 C 108.367188 42.714844 108.539062 42.507812 108.6875 42.277344 C 108.835938 42.050781 108.960938 41.8125 109.058594 41.558594 C 109.15625 41.304688 109.230469 41.042969 109.273438 40.777344 C 109.320312 40.507812 109.335938 40.238281 109.324219 39.96875 Z M 104.121094 42.722656 L 103.40625 42.722656 L 103.40625 37.15625 L 105.804688 37.15625 C 107.257812 37.15625 107.753906 37.699219 107.753906 38.699219 C 107.753906 39.699219 107 40.175781 106.03125 40.25 L 107.691406 42.75 L 106.882812 42.75 L 105.316406 40.25 L 104.121094 40.25 Z M 105.109375 39.601562 C 105.886719 39.601562 106.988281 39.726562 106.988281 38.679688 C 106.988281 37.902344 106.363281 37.800781 105.667969 37.800781 L 104.132812 37.800781 L 104.132812 39.601562 Z M 105.109375 39.601562 " fill-opacity="1" fill-rule="nonzero"/></svg>